PathFileType	4	(X/Y/Z)	C:/Users/beibeiliu/ov580/test_trc\sequence.15_training_dense_right.trc
DataRate	CameraRate	NumFrames	NumMarkers	Units	OrigDataRate	OrigDataStartFrame	OrigNumFrames
120	120	16	19	mm	120	1	348
Frame#	Time	ThumbCMC			ThumbMCP			ThumbIP			ThumbTip			IndexMCP			IndexPIP			IndexTip			MiddleMCP			MiddlePIP			MiddleTip			RingMCP			RingPIP			RingTip			PinkyMCP			PinkyPIP			PinkyTip			BackHand1			BackHand2			BackHand3	
		X0	Y0	Z0	X1	Y1	Z1	X2	Y2	Z2	X3	Y3	Z3	X4	Y4	Z4	X5	Y5	Z5	X6	Y6	Z6	X7	Y7	Z7	X8	Y8	Z8	X9	Y9	Z9	X10	Y10	Z10	X11	Y11	Z11	X12	Y12	Z12	X13	Y13	Z13	X14	Y14	Z14	X15	Y15	Z15	X16	Y16	Z16	X17	Y17	Z17	X18	Y18	Z18	
0	0	165.516	-26.7242	-4.342	141.978	-28.37	-21.4105	130.211	-28.1971	-42.0917	119.039	-27.6362	-55.8124	168.337	-20.8742	-73.2824	164.199	-23.2926	-97.7042	157.599	-20.9622	-114.683	193.54	-23.1139	-80.1358	189.612	-24.4849	-102.094	194.003	-23.4919	-127.016	210.82	-28.2825	-73.6253	213.61	-27.5415	-94.6053	219.585	-23.7269	-114.103	227.737	-34.4642	-59.8395	236.178	-33.3481	-74.1818	245.467	-27.3978	-84.3728	209.418	-19.0114	-31.1318	209.602	-12.4312	-4.35487	184.708	-11.0512	-17.1333	
1	0.00833333	162.728	-25.3933	-9.7814	145.724	-29.2251	-21.8714	131.312	-27.4304	-44.4375	116.394	-27.3741	-52.9014	167.901	-21.2824	-74.0324	161.734	-21.5005	-97.7222	160.607	-21.3786	-119.677	189.205	-22.652	-79.8847	188.128	-23.9494	-106.818	192.525	-21.9854	-129.528	208.138	-26.9964	-76.7619	216.79	-28.3787	-92.1042	217.257	-23.3469	-114.825	226.534	-34.347	-60.0092	236.635	-32.4093	-75.9746	243.088	-25.9905	-90.6905	208.553	-19.1308	-31.7487	209.139	-13.147	-5.52312	183.424	-9.76297	-21.084	
2	0.0166667	161.747	-25.2539	-5.18573	145.637	-28.4608	-25.2306	130.01	-26.4645	-44.0292	118.806	-25.6431	-55.7557	168.058	-20.7254	-75.2458	161.035	-21.4747	-94.6043	161.111	-20.9942	-117.132	188.873	-22.1801	-85.6755	187.389	-23.1191	-106.898	192.31	-21.2618	-131.524	210.672	-26.8622	-75.81	212.407	-27.3264	-93.2796	217.317	-24.0965	-114.716	226.979	-32.1342	-61.8098	235.553	-33.2891	-74.7098	241.929	-26.6164	-87.8356	209.253	-18.3337	-33.549	211.875	-12.0598	-9.09417	185.359	-8.93196	-20.3957	
3	0.025	160.42	-23.8172	-8.67761	143.251	-27.1134	-22.7657	130.247	-25.0142	-46.0821	115.949	-24.3698	-56.18	165.759	-19.5729	-73.963	160.506	-20.8666	-99.5301	161.653	-20.1177	-119.429	192.583	-21.5327	-84.288	190.931	-22.8328	-108.555	194.061	-21.6456	-130.293	209.076	-24.6744	-78.1518	214.069	-25.1218	-97.5971	215.803	-23.3884	-116.383	226.396	-31.6971	-61.2834	233.501	-32.7868	-74.0489	244.937	-24.8993	-91.1042	206.37	-15.5118	-34.2284	210.118	-13.2069	-6.83135	181.172	-8.96263	-24.3214	
4	0.0333333	159.266	-22.1936	-10.278	144.121	-26.5166	-24.4263	129.793	-24.3467	-44.7681	116.216	-23.7312	-57.5515	167.048	-18.5268	-78.3159	160.594	-19.43	-96.7352	161.882	-19.9467	-119.082	187.988	-19.8237	-81.2138	188.713	-22.263	-108.866	190.864	-19.9601	-129.06	208.031	-25.4878	-73.7385	211.332	-24.3648	-98.9287	216.409	-21.2271	-117.858	227.101	-32.3848	-58.8863	235.893	-30.209	-78.0995	245.398	-25.3787	-92.0367	206.918	-15.8496	-31.3703	212.878	-11.0387	-7.46273	186.511	-8.87004	-21.1075	
5	0.0416667	159.703	-23.074	-11.7056	145.803	-27.4985	-25.804	132.083	-26.8292	-41.6395	118.053	-25.053	-54.9732	164.123	-19.0416	-76.6995	164.515	-20.1584	-99.8845	155.7	-18.282	-121.726	190.452	-20.0584	-81.716	191.328	-21.5561	-105.647	190.429	-20.3225	-127.956	207.336	-24.3483	-77.4917	214.058	-24.3381	-95.4708	213.729	-22.5455	-114.797	229.539	-31.7196	-62.0519	232.998	-30.8232	-75.6966	247.446	-23.3477	-91.3608	210.827	-17.0601	-34.4893	209.731	-11.9722	-10.3701	185.767	-9.00402	-25.2502	
6	0.05	161.639	-23.8162	-11.2792	142.348	-25.7562	-23.8591	126.992	-23.8659	-43.168	114.385	-24.2163	-52.999	164.949	-18.6365	-77.2822	158.825	-19.0585	-100.048	160.616	-19.1238	-121.427	187.123	-18.8001	-83.2145	188.257	-21.1463	-106.11	190.473	-19.9996	-130.373	210.885	-23.7128	-77.3492	214.481	-23.9722	-95.9894	216.617	-21.6636	-114.603	225.655	-31.1761	-60.7935	237.219	-31.0855	-76.9396	247.049	-23.4695	-92.527	206.951	-14.7135	-32.049	207.094	-11.1947	-8.39913	183.006	-8.84327	-24.7061	
7	0.0583333	160.394	-23.7863	-6.96946	142.49	-25.4391	-24.3791	128.262	-23.9288	-42.5645	114.07	-22.1137	-54.651	162.772	-17.2474	-77.4747	161.725	-19.5931	-102.22	158.056	-18.1301	-123.992	188.803	-19.7573	-85.143	188.113	-21.2256	-107.755	193.168	-19.2583	-134.3	211.029	-24.5149	-78.2405	215.114	-23.8904	-97.355	213.243	-20.5958	-114.907	225.224	-30.6891	-59.5415	232.422	-30.4786	-75.0556	245.571	-22.4389	-89.2685	205.991	-13.4397	-36.578	207.796	-10.0366	-6.84094	180.72	-7.33316	-21.7237	
8	0.0666667	162.462	-23.0425	-11.9385	142.198	-25.0921	-23.8246	130.318	-24.0066	-41.2396	114.88	-22.7458	-52.879	164.597	-17.4754	-78.6113	160.476	-17.7966	-100.084	159.745	-17.957	-119.12	189.384	-18.7092	-83.5867	188.958	-20.8311	-109.699	190.128	-19.2679	-128.004	207.192	-22.885	-74.1593	211.118	-23.6181	-94.7501	215.19	-19.3498	-117.294	226.648	-29.8044	-60.6006	232.103	-29.3458	-77.7866	244.88	-24.6301	-87.2592	210.178	-13.5591	-34.8675	210.756	-10.6239	-9.86305	184.197	-8.07527	-20.8649	
9	0.075	160.113	-21.4368	-6.59206	141.337	-24.6343	-24.3533	128.693	-22.6076	-40.8495	114.005	-20.3808	-54.4221	166.441	-16.0776	-78.2584	158.828	-17.5951	-96.2498	158.085	-17.6228	-121.703	185.736	-16.8047	-85.7562	187.879	-19.5595	-109.097	188.536	-17.3142	-128.498	207.929	-22.3056	-73.8342	209.866	-22.613	-94.6001	213.111	-19.4874	-115.837	228.3	-29.8233	-59.8024	232.755	-28.6174	-76.2686	240.786	-21.1379	-89.4935	204.748	-15.1648	-31.8565	210.194	-11.1415	-10.638	186.038	-5.84831	-20.0416	
10	0.0833333	162.591	-21.3982	-10.1164	139.693	-22.7607	-25.8282	125.607	-22.5394	-42.0401	114.072	-21.1753	-56.1269	164.341	-15.5748	-74.3916	158.272	-17.0522	-100.285	160.885	-16.9778	-119.268	188.156	-17.5605	-84.8611	190.418	-18.6319	-105.362	190.697	-17.7741	-129.278	209.85	-21.7371	-77.3709	211.668	-21.5785	-95.2712	213.95	-19.1728	-115.766	228.774	-30.3293	-60.12	232.488	-28.3343	-76.5361	243.143	-19.6948	-92.0627	205.25	-14.5233	-30.3766	209.307	-9.0746	-6.79358	184.784	-8.05709	-19.7065	
11	0.0916667	161.464	-22.3329	-5.92158	145.486	-24.4626	-25.3056	127.047	-21.291	-45.5546	112.129	-19.3683	-56.66	162.587	-14.9872	-76.6716	160.745	-15.9065	-99.7577	158.094	-16.1375	-121.953	185.886	-16.1214	-81.5356	189.074	-17.011	-106.988	187.914	-15.2567	-129.839	209.257	-20.4393	-76.649	212.851	-21.3422	-95.1496	213.392	-18.3785	-118.135	225.518	-27.4311	-64.6175	235.161	-26.4432	-78.6037	244.721	-20.8765	-90.6428	207.521	-13.6938	-35.6032	208.772	-9.51712	-8.33735	180.795	-6.94456	-23.4851	
12	0.1	158.968	-20.5954	-6.89501	144.075	-23.413	-25.6353	129.14	-22.08	-41.1977	114.825	-19.279	-53.6714	161.439	-12.3372	-78.7423	160.579	-14.6179	-99.5026	154.778	-14.5539	-117.334	185.518	-13.8089	-86.4845	190.67	-16.6624	-109.557	190.875	-15.2092	-130.451	207.883	-19.058	-78.1421	214.355	-19.504	-98.4205	211.842	-15.8005	-117.713	227.819	-26.085	-63.349	232.604	-25.3995	-78.2718	241.681	-19.2837	-92.2907	205.761	-10.2855	-34.1448	208.154	-9.38035	-9.06301	181.452	-3.78991	-19.8245	
13	0.108333	162.776	-20.1639	-10.2092	142.64	-22.646	-26.0738	130.179	-20.0577	-43.2367	115.176	-19.2429	-52.7722	165.543	-11.9175	-76.0593	161.734	-12.3158	-99.164	155.622	-11.5904	-122.851	190.713	-12.7886	-81.929	190.421	-14.0881	-105.186	191.88	-12.1487	-132.397	210.858	-17.9728	-78.7418	208.356	-17.6825	-96.5712	213.557	-15.4217	-113.957	228.152	-25.6903	-59.6271	235.051	-24.4037	-78.9146	239.368	-18.3227	-90.4832	205.668	-10.3107	-30.6941	208.473	-7.98056	-9.75128	180.945	-2.64257	-19.3052	
14	0.116667	160.82	-19.3471	-9.65805	139.833	-21.8636	-23.0348	129.03	-19.7286	-42.6957	112.81	-16.6534	-57.4909	162.763	-8.5871	-78.7588	161.572	-10.7269	-101.039	155.078	-9.76944	-119.692	185.906	-11.1719	-83.3026	190.36	-12.4258	-104.02	189.926	-9.89696	-130.719	211.11	-16.9788	-76.9071	211.745	-15.4773	-99.3032	212.517	-12.7994	-118.76	226.58	-24.4352	-60.3155	235.92	-23.1655	-74.2028	243.148	-15.3517	-92.3858	209.044	-10.0481	-31.879	206.915	-6.50484	-7.04079	181.702	-3.75012	-22.4925	
15	0.125	158.975	-16.973	-9.75271	141.932	-21.8154	-25.0664	128.004	-20.0613	-42.3593	115.683	-19.309	-55.7426	162.26	-6.55753	-77.4768	158.648	-8.49119	-100.448	154.199	-6.83333	-119.493	186.87	-9.28983	-85.2786	185.429	-9.89003	-107.963	187.157	-7.54079	-128.864	206.22	-13.9377	-78.2042	213.82	-15.0374	-94.9121	214.243	-13.1369	-117.61	227.364	-21.9626	-60.8683	234.933	-21.598	-75.3925	242.135	-13.9556	-91.0701	210.377	-6.94944	-30.5537	210.765	-4.4141	-9.01369	182.354	-2.14037	-18.6024	
